<svg xmlns="http://www.w3.org/2000/svg" width="160" height="160" viewBox="0 0 160 160">
  <defs>
    <linearGradient id="field" x1="40" y1="20" x2="126" y2="142" gradientUnits="userSpaceOnUse">
      <stop stop-color="#ffdf80"/>
      <stop offset=".46" stop-color="#f1b84b"/>
      <stop offset="1" stop-color="#1f9d55"/>
    </linearGradient>
    <linearGradient id="sky" x1="21" y1="16" x2="142" y2="144" gradientUnits="userSpaceOnUse">
      <stop stop-color="#102445"/>
      <stop offset="1" stop-color="#06152e"/>
    </linearGradient>
  </defs>
  <circle cx="80" cy="80" r="74" fill="url(#sky)"/>
  <circle cx="80" cy="80" r="70" fill="none" stroke="#f1b84b" stroke-width="4"/>
  <path d="M78.4 20.6 92 25.2l4.8 11.1 13.6 2.3 6 11.6 14.4 8.7-7.5 12.2 4.4 13.4-12.4 7.3-1 15-15.1 3.5-8.2 15.1-14.3-5.3-11.9 8.6-9.5-11.7-15.7-.6-3.4-15.5-12-8 6.6-13.8-6.6-12.6 12.8-8.4 2.8-14.8 14.8-2.1 9.6-12.7Z" fill="url(#field)" stroke="#fff7df" stroke-linejoin="round" stroke-width="6"/>
  <path d="M41 86c14.2-1.4 27.8-.6 40.7 2.2 13.4 2.9 25.6 7.9 36.6 15" fill="none" stroke="#fff7df" stroke-linecap="round" stroke-width="5" opacity=".72"/>
  <path d="M50.8 104.6c9.2-4.2 18.9-6.4 29.2-6.4 10.7 0 20.4 2.2 29.2 6.4" fill="none" stroke="#0d4b2f" stroke-linecap="round" stroke-width="4" opacity=".72"/>
  <path d="M68.2 66.9c-5.1-5.1-7.7-11.8-7.7-20.1 8.3.2 15 2.9 20 8.2 5.1-5.3 11.7-8 19.9-8.2 0 8.3-2.6 15-7.7 20.1-3.4 3.4-7.4 5.7-12.2 6.8-4.8-1.1-8.9-3.4-12.3-6.8Z" fill="#fff7df" opacity=".92"/>
  <text x="80" y="111" fill="#06152e" font-family="Arial, Helvetica, sans-serif" font-size="34" font-weight="900" text-anchor="middle">JP</text>
</svg>
